<?xml version="1.0" standalone="no"?>
<!DOCTYPE svg PUBLIC "-//W3C//DTD SVG 20010904//EN"
 "http://www.w3.org/TR/2001/REC-SVG-20010904/DTD/svg10.dtd">
<svg version="1.0" xmlns="http://www.w3.org/2000/svg"
 width="1400.000000pt" height="600.000000pt" viewBox="0 0 1400.000000 600.000000"
 preserveAspectRatio="xMidYMid meet">

<g transform="translate(0.000000,600.000000) scale(0.100000,-0.100000)"
fill="#000000" stroke="none">
<path d="M5080 4563 c-12 -26 -71 -154 -130 -283 -60 -129 -127 -275 -150
-325 -23 -49 -91 -198 -152 -330 -109 -238 -221 -482 -259 -561 -57 -121 -209
-458 -209 -464 0 -3 69 11 153 32 83 20 162 40 175 43 19 5 22 1 22 -22 0 -15
-25 -203 -55 -418 -104 -742 -145 -1040 -145 -1050 0 -13 21 27 69 133 21 48
69 149 105 225 36 76 66 140 66 142 0 1 24 54 54 116 73 156 122 260 163 349
19 41 51 109 70 150 20 41 82 174 138 295 57 121 126 270 155 330 98 206 110
235 96 235 -11 0 -144 -30 -313 -71 -29 -7 -56 -10 -59 -6 -3 3 19 167 51 364
31 197 68 432 82 523 14 91 42 271 63 400 21 129 36 236 35 238 -1 1 -13 -19
-25 -45z"/>
<path d="M7146 4190 c-80 -29 -139 -71 -184 -133 -78 -105 -106 -203 -106
-367 0 -107 3 -123 37 -225 55 -160 123 -280 328 -575 88 -128 148 -235 175
-311 23 -65 26 -85 21 -160 -9 -137 -53 -202 -137 -202 -52 0 -83 22 -108 77
-31 64 -41 119 -42 212 0 44 -2 83 -5 85 -2 3 -39 2 -82 -2 -43 -4 -114 -11
-157 -14 l-79 -7 6 -126 c11 -243 77 -388 214 -468 52 -31 89 -42 184 -54 150
-20 298 22 388 110 94 92 148 274 138 470 -9 195 -66 316 -350 740 -72 107
-149 233 -171 280 -40 82 -41 88 -40 185 0 113 16 163 59 191 92 60 168 -33
182 -223 7 -95 -3 -89 128 -73 44 5 106 12 138 16 l57 5 0 39 c0 126 -48 309
-101 387 -74 108 -168 154 -329 160 -88 3 -115 0 -164 -17z"/>
<path d="M8027 4023 c-4 -3 -7 -98 -7 -210 l0 -203 -80 0 -81 0 3 -132 3 -133
75 -5 75 -5 6 -545 c4 -365 10 -559 17 -587 38 -139 88 -210 178 -254 60 -30
72 -32 167 -31 56 0 114 5 130 11 l27 11 0 144 0 145 -76 -2 c-69 -2 -76 0
-94 23 -43 54 -45 82 -45 595 l0 490 108 3 107 3 0 134 0 134 -107 3 -108 3
-3 208 -2 207 -144 0 c-78 0 -146 -3 -149 -7z"/>
<path d="M3855 3617 c-33 -24 -82 -59 -110 -79 -122 -85 -274 -194 -320 -228
-27 -20 -103 -74 -168 -120 l-118 -83 3 -146 3 -145 110 -79 c61 -43 128 -91
150 -106 22 -15 117 -81 210 -147 94 -67 200 -142 238 -168 l67 -47 0 144 0
143 -275 200 c-151 109 -275 202 -275 206 0 8 116 96 373 283 l177 129 0 143
c0 79 -1 143 -3 143 -2 0 -30 -19 -62 -43z"/>
<path d="M5430 3521 l0 -140 58 -43 c31 -24 157 -116 280 -203 122 -87 221
-164 219 -169 -2 -6 -39 -37 -83 -68 -43 -32 -167 -122 -274 -201 l-195 -143
-3 -142 c-1 -78 0 -142 3 -142 5 0 116 77 219 152 32 24 82 59 110 78 28 19
142 100 254 179 l202 143 0 143 0 143 -67 49 c-168 123 -710 503 -717 503 -3
0 -6 -63 -6 -139z"/>
<path d="M9017 3630 c-72 -13 -132 -46 -183 -103 -57 -64 -80 -108 -105 -204
-17 -70 -19 -114 -19 -547 0 -506 3 -533 54 -650 30 -68 100 -144 158 -173 96
-48 267 -49 363 -3 58 28 127 106 164 184 49 102 53 164 49 691 -4 460 -5 482
-25 537 -52 139 -140 229 -248 256 -62 15 -155 21 -208 12z m142 -276 c50 -35
51 -47 51 -581 0 -466 -1 -501 -19 -533 -13 -25 -30 -39 -59 -49 -53 -19 -84
-6 -111 48 -20 37 -20 59 -21 534 -1 521 0 535 44 580 22 22 84 22 115 1z"/>
<path d="M11053 3628 c-18 -6 -71 -42 -118 -79 -46 -38 -87 -69 -90 -69 -3 0
-5 29 -5 65 l0 65 -150 0 -150 0 0 -835 0 -835 150 0 150 0 0 661 0 661 33 33
c19 19 46 37 61 41 39 10 89 -8 103 -36 10 -19 13 -179 13 -692 l0 -668 140 0
140 0 0 661 0 661 33 33 c56 56 146 56 167 0 6 -16 10 -280 10 -691 l0 -664
140 0 140 0 -2 743 -3 742 -29 63 c-45 96 -108 143 -192 144 -63 0 -133 -42
-236 -140 l-46 -45 -27 54 c-34 67 -51 86 -95 109 -47 23 -98 30 -137 18z"/>
<path d="M10248 3615 c-61 -22 -123 -71 -157 -121 l-31 -47 0 81 0 82 -155 0
-155 0 0 -835 0 -835 155 0 155 0 0 613 0 612 23 40 c41 73 127 111 230 102
l57 -5 0 164 0 164 -42 -1 c-24 0 -60 -7 -80 -14z"/>
<path d="M7993 1638 c-45 -22 -68 -126 -43 -192 27 -71 99 -89 151 -37 23 23
29 39 29 70 l0 41 -46 0 c-38 0 -45 -3 -42 -17 2 -10 15 -20 30 -23 26 -5 27
-7 15 -30 -9 -17 -22 -26 -44 -28 -42 -4 -63 27 -63 93 0 59 21 95 54 95 24 0
56 -28 56 -49 0 -7 8 -11 18 -9 12 2 18 15 20 47 l3 44 -30 -6 c-17 -4 -33 -2
-36 3 -8 13 -44 12 -72 -2z"/>
<path d="M6912 1513 l3 -128 80 0 c68 0 80 3 83 18 3 15 -5 17 -63 17 l-66 0
3 38 c3 37 3 37 51 40 32 2 47 8 47 17 0 9 -15 15 -47 17 -48 3 -48 3 -48 38
l0 35 63 3 c46 2 62 7 62 17 0 12 -17 15 -85 15 l-86 0 3 -127z"/>
<path d="M7430 1510 c0 -123 1 -130 20 -130 19 0 20 7 20 92 0 50 3 89 6 85 4
-3 21 -43 40 -89 28 -70 37 -83 56 -83 23 0 23 2 26 128 2 122 2 127 -18 127
-18 0 -20 -6 -20 -75 0 -41 -4 -75 -9 -75 -4 0 -21 34 -36 75 -25 70 -29 75
-56 75 l-29 0 0 -130z"/>
<path d="M8472 1513 l3 -128 78 -3 c72 -3 77 -1 77 18 0 18 -6 20 -60 20 l-60
0 0 40 0 40 50 0 c37 0 50 4 50 14 0 11 -14 16 -47 18 -48 3 -48 3 -51 41 l-3
37 60 0 c48 0 61 3 61 15 0 12 -16 15 -80 15 l-81 0 3 -127z"/>
<path d="M8990 1511 c0 -124 1 -131 20 -131 18 0 20 8 22 93 l3 92 36 -90 c32
-78 40 -90 60 -90 24 0 24 0 24 125 0 118 -1 125 -20 125 -18 0 -20 -7 -20
-67 -1 -37 -3 -70 -7 -73 -3 -3 -18 27 -34 67 -25 64 -33 73 -56 76 l-28 3 0
-130z"/>
<path d="M9510 1509 c0 -119 2 -130 18 -127 13 2 18 15 20 61 l3 57 39 0 39 0
3 -57 c3 -50 6 -58 23 -58 19 0 20 7 20 125 0 122 -1 125 -22 128 -22 3 -23 0
-23 -53 l0 -56 -37 3 -38 3 -3 53 c-3 44 -6 52 -23 52 -18 0 -19 -8 -19 -131z"/>
<path d="M10047 1516 c-20 -68 -37 -126 -37 -130 0 -3 9 -6 20 -6 14 0 22 10
28 33 7 29 12 32 50 35 40 3 43 1 57 -32 14 -34 45 -50 45 -25 0 7 -17 65 -37
130 -34 112 -38 119 -62 119 -25 0 -29 -6 -64 -124z m87 -3 c7 -32 6 -33 -24
-33 -29 0 -32 2 -26 25 3 13 11 37 17 52 10 26 12 26 19 8 4 -11 11 -35 14
-52z"/>
<path d="M10550 1509 c0 -119 2 -130 18 -127 13 2 18 15 20 56 2 28 7 52 11
52 5 0 25 -25 45 -55 24 -36 43 -55 56 -55 27 0 25 9 -12 59 l-31 43 31 25
c25 19 32 32 32 59 0 55 -28 74 -105 74 l-65 0 0 -131z m114 88 c11 -8 17 -23
14 -38 -3 -21 -9 -24 -45 -27 l-43 -3 0 40 c0 38 2 41 28 41 16 0 36 -6 46
-13z"/>
<path d="M11090 1625 c0 -8 9 -15 20 -15 19 0 20 -7 20 -95 0 -88 -1 -95 -20
-95 -13 0 -20 -7 -20 -20 0 -18 7 -20 60 -20 53 0 60 2 60 20 0 13 -7 20 -20
20 -19 0 -20 7 -20 95 0 88 1 95 20 95 11 0 20 7 20 15 0 12 -13 15 -60 15
-47 0 -60 -3 -60 -15z"/>
<path d="M11607 1520 c-20 -65 -37 -124 -37 -130 0 -24 32 -7 46 25 13 32 18
35 54 35 36 0 41 -3 54 -35 8 -19 22 -35 30 -35 21 0 22 -3 -21 138 -35 115
-38 122 -63 122 -24 0 -28 -7 -63 -120z m73 35 c26 -67 25 -75 -10 -75 -29 0
-32 2 -26 23 4 12 9 34 12 50 8 34 12 34 24 2z"/>
</g>
</svg>
